#define rotateCW_width 15
#define rotateCW_height 15
static unsigned char rotateCW_bits[] = {
   0x00, 0x18, 0xe0, 0x1b, 0xf8, 0x1f, 0x1c, 0x1e, 0x8c, 0x1f, 0x86, 0x1f,
   0x06, 0x00, 0x06, 0x00, 0x06, 0x00, 0x06, 0x30, 0x0c, 0x30, 0x1c, 0x1c,
   0xf8, 0x0f, 0xe0, 0x03, 0x00, 0x00};
