#define rotateCCW_width 15
#define rotateCCW_height 15
static unsigned char rotateCCW_bits[] = {
   0x0c, 0x00, 0xec, 0x03, 0xfc, 0x0f, 0x3c, 0x1c, 0xfc, 0x18, 0xfc, 0x30,
   0x00, 0x30, 0x00, 0x30, 0x00, 0x30, 0x06, 0x30, 0x06, 0x18, 0x1c, 0x1c,
   0xf8, 0x0f, 0xe0, 0x03, 0x00, 0x00};
