#define zoomIn_width 15
#define zoomIn_height 15
static unsigned char zoomIn_bits[] = {
   0xf8, 0x7f, 0xf8, 0x7f, 0x18, 0x60, 0x18, 0x60, 0x18, 0x60, 0x18, 0x60,
   0x18, 0x60, 0x18, 0x60, 0x1f, 0x60, 0x19, 0x60, 0xf9, 0x7f, 0xf9, 0x7f,
   0x41, 0x00, 0x41, 0x00, 0x7f, 0x00};
