#define zoomOut_width 15
#define zoomOut_height 15
static unsigned char zoomOut_bits[] = {
   0xff, 0x0f, 0x01, 0x08, 0x01, 0x08, 0x01, 0x08, 0x01, 0x08, 0x01, 0x08,
   0x01, 0x08, 0x01, 0x08, 0x01, 0x7f, 0x01, 0x7f, 0x01, 0x63, 0xff, 0x63,
   0x00, 0x63, 0x00, 0x7f, 0x00, 0x7f};
